<svg width="24" height="24" viewBox="0 0 24 24" fill="none" xmlns="http://www.w3.org/2000/svg">
<path fill-rule="evenodd" clip-rule="evenodd" d="M16.0533 0.386667L17 1.33333H20.3333C21.0667 1.33333 21.6667 1.93333 21.6667 2.66667C21.6667 3.4 21.0667 4 20.3333 4H4.33333C3.6 4 3 3.4 3 2.66667C3 1.93333 3.6 1.33333 4.33333 1.33333H7.66667L8.61333 0.386667C8.85333 0.146667 9.2 0 9.54667 0H15.12C15.4667 0 15.8133 0.146667 16.0533 0.386667ZM6.99994 24C5.53327 24 4.33327 22.8 4.33327 21.3334V8.00003C4.33327 6.53336 5.53327 5.33336 6.99994 5.33336H17.6666C19.1333 5.33336 20.3333 6.53336 20.3333 8.00003V21.3334C20.3333 22.8 19.1333 24 17.6666 24H6.99994Z" fill="#ED3A3A"/>
<rect x="7" y="9.5" width="2" height="11" fill="white"/>
<rect x="11.5" y="9.5" width="2" height="11" fill="white"/>
<rect x="16" y="9.5" width="2" height="11" fill="white"/>
</svg>
