<svg width="21" height="21" viewBox="0 0 21 21" fill="none" xmlns="http://www.w3.org/2000/svg">
<path d="M2.37305 20.4996C1.82305 20.4996 1.35221 20.3038 0.960547 19.9121C0.56888 19.5204 0.373047 19.0496 0.373047 18.4996V4.49961C0.373047 3.94961 0.56888 3.47878 0.960547 3.08711C1.35221 2.69544 1.82305 2.49961 2.37305 2.49961H11.298L9.29805 4.49961H2.37305V18.4996H16.373V11.5496L18.373 9.54961V18.4996C18.373 19.0496 18.1772 19.5204 17.7855 19.9121C17.3939 20.3038 16.923 20.4996 16.373 20.4996H2.37305ZM6.37305 14.4996V10.2496L15.548 1.07461C15.748 0.874609 15.973 0.724609 16.223 0.624609C16.473 0.524609 16.723 0.474609 16.973 0.474609C17.2397 0.474609 17.4939 0.524609 17.7355 0.624609C17.9772 0.724609 18.198 0.874609 18.398 1.07461L19.798 2.49961C19.9814 2.69961 20.123 2.92044 20.223 3.16211C20.323 3.40378 20.373 3.64961 20.373 3.89961C20.373 4.14961 20.3272 4.39544 20.2355 4.63711C20.1439 4.87878 19.998 5.09961 19.798 5.29961L10.623 14.4996H6.37305ZM8.37305 12.4996H9.77305L15.573 6.69961L14.873 5.99961L14.148 5.29961L8.37305 11.0746V12.4996Z" fill="#656565"/>
</svg>
