<?xml version="1.0" standalone="no"?>
<!DOCTYPE svg PUBLIC "-//W3C//DTD SVG 20010904//EN"
 "http://www.w3.org/TR/2001/REC-SVG-20010904/DTD/svg10.dtd">
<svg version="1.0" xmlns="http://www.w3.org/2000/svg"
 width="370.000000pt" height="95.000000pt">

<g transform="translate(0.000000,320.000000) scale(0.100000,-0.100000)"
fill="#000000" stroke="none">
    <path d="M2743 3190 c-25 -10 -22 -7 -223 -230 -79 -88 -152 -160 -161 -160
-8 0 -33 20 -53 45 l-38 45 -136 0 -136 0 113 -114 c95 -96 111 -117 103 -133
-6 -10 -83 -87 -171 -171 -89 -85 -161 -158 -161 -163 0 -5 61 -9 139 -9 l139
0 97 105 c53 58 102 105 109 105 6 0 32 -20 56 -45 l44 -45 122 0 c68 0 125 4
128 9 3 4 -24 37 -61 72 -114 109 -145 147 -136 162 4 8 118 128 253 266 135
139 247 256 248 262 5 12 -245 11 -275 -1z"/>
<path d="M162 3002 c-9 -6 -12 -29 -10 -78 l3 -69 398 -3 398 -2 -3 77 -3 78
-385 2 c-212 2 -391 -1 -398 -5z"/>
<path d="M3137 3003 c-4 -3 -7 -39 -7 -80 l0 -73 395 0 395 0 0 74 c0 58 -3
75 -16 80 -21 8 -759 8 -767 -1z"/>
<path d="M4008 2983 c-2 -10 -3 -48 0 -85 l4 -68 317 0 c371 0 356 4 356 -89
0 -100 17 -95 -355 -99 l-320 -4 0 -314 0 -314 100 0 100 0 0 219 c0 121 3
226 6 235 5 14 28 16 155 16 166 0 169 -1 169 -74 l0 -36 101 0 101 0 -4 89
c-5 100 2 121 38 121 48 0 83 28 109 87 35 79 34 148 -5 229 -48 102 -29 98
-481 102 -367 3 -387 3 -391 -15z"/>
<path d="M154 2697 c-2 -7 -3 -98 -2 -202 l3 -190 393 -3 392 -2 0 75 0 75
-283 0 c-207 0 -286 3 -295 12 -18 18 -15 95 4 102 9 3 135 6 280 6 l264 0 0
70 0 70 -375 0 c-296 0 -377 -3 -381 -13z"/>
<path d="M3130 2505 l0 -205 390 0 390 0 0 75 0 75 -287 2 -288 3 -6 45 c-4
25 -2 51 3 58 8 9 76 12 279 12 l269 0 0 70 0 70 -375 0 -375 0 0 -205z"/>
<path d="M1037 2683 c-13 -12 -8 -358 5 -371 9 -9 103 -12 364 -12 l352 0 4
28 c2 15 4 52 3 82 l0 55 -255 5 -255 5 -3 108 -3 107 -103 0 c-56 0 -106 -3
-109 -7z"/>
</g>
</svg>
